<?xml version="1.0" encoding="utf-8"?>
<!-- Generator: Adobe Illustrator 25.3.1, SVG Export Plug-In . SVG Version: 6.00 Build 0)  -->
<svg version="1.1" id="圖層_1" xmlns="http://www.w3.org/2000/svg" xmlns:xlink="http://www.w3.org/1999/xlink" x="0px" y="0px"
	 viewBox="0 0 52 52" style="enable-background:new 0 0 52 52;" xml:space="preserve">
<style type="text/css">
	.st0{fill:#FFFFFF;}
	.st1{fill:none;stroke:#BD9D5D;}
	.st2{fill:#BD9D5D;}
	.st3{fill:none;stroke:#BD9D5D;stroke-width:2;stroke-linecap:round;}
</style>
<g>
	<g id="Group_1922" transform="translate(-1820 -849)">
		<g id="Rectangle_1592" transform="translate(1820 849)">
			<path class="st0" d="M26,1L26,1c13.8,0,25,11.2,25,25l0,0c0,13.8-11.2,25-25,25l0,0C12.2,51,1,39.8,1,26l0,0C1,12.2,12.2,1,26,1z
				"/>
			<path class="st1" d="M26,1.5L26,1.5c13.5,0,24.5,11,24.5,24.5l0,0c0,13.5-11,24.5-24.5,24.5l0,0c-13.5,0-24.5-11-24.5-24.5l0,0
				C1.5,12.5,12.5,1.5,26,1.5z"/>
		</g>
	</g>
	<g id="Group_1923" transform="translate(-1859 -799)">
		<path id="Polygon_1" class="st2" d="M1884.2,818.1c0.3-0.5,0.9-0.6,1.4-0.3c0.1,0.1,0.2,0.2,0.3,0.3l2.7,4.2
			c0.3,0.5,0.2,1.1-0.3,1.4c-0.2,0.1-0.3,0.2-0.5,0.2h-5.3c-0.6,0-1-0.4-1-1c0-0.2,0.1-0.4,0.2-0.5L1884.2,818.1z"/>
		<line id="Line_222" class="st3" x1="1885" y1="832.3" x2="1885" y2="820.3"/>
	</g>
</g>
</svg>
