<svg xmlns="http://www.w3.org/2000/svg" width="248.909" height="222.078" viewBox="0 0 248.909 222.078"><defs><style>.a{fill:#fff;}.b{fill:#9fa0a0;}.c{fill:#ffb8b8;}.d{fill:#727171;}.e{fill:#e6e6e6;}.f{fill:#f2f2f2;}.g{fill:#bc9c61;}.h{opacity:0.2;isolation:isolate;}.i{fill:#3f3d56;}.j{fill:#3e3a39;}</style></defs><g transform="translate(0)"><path class="a" d="M380.278,472.178H261.6a2.778,2.778,0,0,1-2.775-2.775V388.365a2.778,2.778,0,0,1,2.775-2.775H380.278a2.779,2.779,0,0,1,2.775,2.775V469.4A2.778,2.778,0,0,1,380.278,472.178Z" transform="translate(-179.019 -266.698)"/><path class="b" d="M380.278,472.178H261.6a2.778,2.778,0,0,1-2.775-2.775V388.365a2.778,2.778,0,0,1,2.775-2.775H380.278a2.779,2.779,0,0,1,2.775,2.775V469.4A2.778,2.778,0,0,1,380.278,472.178ZM261.6,386.207a2.161,2.161,0,0,0-2.158,2.158V469.4a2.161,2.161,0,0,0,2.158,2.158H380.278a2.161,2.161,0,0,0,2.158-2.158V388.365a2.161,2.161,0,0,0-2.158-2.158Z" transform="translate(-179.019 -266.698)"/><rect class="b" width="248.909" height="0.617" transform="translate(0 205.362) rotate(-0.108)"/><path class="c" d="M198.626,695.4l1.671,1.032,1.773-3.226-2.022-1.265Z" transform="translate(-137.382 -478.591)"/><path class="c" d="M264.05,704h2l-.19-3.738h-2.948Z" transform="translate(-181.427 -483.358)"/><path class="d" d="M219.837,638.268a.72.72,0,0,1-.673-.465l-7.105-16.988a.24.24,0,0,0-.425-.052l-9.761,15.377a.719.719,0,0,1-.9.251l-1.335-.623a.724.724,0,0,1-.353-.948l8-17.826c-.175-.425-1.878-4.787.739-6.942l.018-.011,7.1-3.165.179,5.443,7.073,24.54a.721.721,0,0,1-.493.892l-.016,0-1.852.487A.719.719,0,0,1,219.837,638.268Z" transform="translate(-137.792 -419.752)"/><g transform="translate(-133.996 -483.637)"><path class="d" d="M264.922,710.1H268.6a2.346,2.346,0,0,1,2.346,2.346h0v.076h-6.027Z" transform="translate(-49.163 -6.809)"/><path class="d" d="M195.271,700.539l3.132,1.915h0a2.309,2.309,0,0,1,.763,3.2h0l-.04.064L194,702.579Z" transform="translate(0)"/></g><path class="e" d="M443.193,553.669H415.717V508.183a4.074,4.074,0,0,1,4.069-4.069h19.337a4.074,4.074,0,0,1,4.069,4.069Z" transform="translate(-287.535 -348.676)"/><path class="a" d="M596.53,264.52H580.839V238.3a2.779,2.779,0,0,1,2.775-2.775h10.141a2.778,2.778,0,0,1,2.775,2.775Z" transform="translate(-401.743 -162.902)"/><path class="b" d="M596.53,264.52H580.839V238.3a2.779,2.779,0,0,1,2.775-2.775h10.141a2.778,2.778,0,0,1,2.775,2.775Zm-15.074-.617h14.457V238.3a2.161,2.161,0,0,0-2.158-2.158H583.614a2.161,2.161,0,0,0-2.158,2.158Z" transform="translate(-401.743 -162.902)"/><circle class="f" cx="30.215" cy="30.215" r="30.215" transform="translate(76.107 52.231)"/><path class="e" d="M580.249,68.024a5.331,5.331,0,0,1-.076-10.653c6.056-.277,11.014-6.775,9.681-12.689s-8.6-9.657-14.188-7.311c-4.287,1.8-8.62-3.872-7.533-8.394s5.2-7.558,9-10.231,7.875-5.813,8.793-10.372S582.147-1.645,578,.468" transform="translate(-392.838)"/><path class="e" d="M318.186,488.38H294.977a3.5,3.5,0,0,1-3.492-3.492V465.754a3.5,3.5,0,0,1,3.492-3.492h23.209a3.5,3.5,0,0,1,3.492,3.492v19.134A3.5,3.5,0,0,1,318.186,488.38Z" transform="translate(-201.609 -319.729)"/><path class="e" d="M559.58,488.38H536.371a3.5,3.5,0,0,1-3.492-3.492V465.754a3.5,3.5,0,0,1,3.492-3.492H559.58a3.5,3.5,0,0,1,3.492,3.492v19.134A3.5,3.5,0,0,1,559.58,488.38Z" transform="translate(-368.571 -319.729)"/><path class="g" d="M230.088,262.02V249.551a5.434,5.434,0,0,1,2.737-4.717L302.1,205.239a5.433,5.433,0,0,1,5.618.136L369.525,244.8a5.433,5.433,0,0,1,2.512,4.581V262.02a5.433,5.433,0,0,1-5.434,5.433H235.522A5.433,5.433,0,0,1,230.088,262.02Z" transform="translate(-159.143 -141.461)"/><path class="h" d="M366.6,378.426H235.522a5.433,5.433,0,0,1-5.434-5.434v4.933a5.434,5.434,0,0,0,5.434,5.434H366.6a5.434,5.434,0,0,0,5.434-5.434v-4.933A5.434,5.434,0,0,1,366.6,378.426Z" transform="translate(-159.143 -257.984)"/><path class="g" d="M22.028,360.871c0-14.065,11.4-47.441,25.467-47.441s25.468,33.376,25.468,47.441a25.467,25.467,0,1,1-50.935,0Z" transform="translate(-15.236 -216.787)"/><path class="i" d="M103.931,460.7a.308.308,0,0,1-.308-.308V368.948a.308.308,0,1,1,.617,0v91.447A.308.308,0,0,1,103.931,460.7Z" transform="translate(-71.672 -254.974)"/><path class="i" d="M103.931,468.83a.308.308,0,0,1-.223-.521l12.946-13.585a.308.308,0,1,1,.448.424h0l-12.946,13.585A.308.308,0,0,1,103.931,468.83Z" transform="translate(-71.672 -314.448)"/><path class="i" d="M78.835,402.075a.308.308,0,0,1-.208-.081L67.439,391.765a.308.308,0,1,1,.416-.455L79.043,401.54a.308.308,0,0,1-.208.536Z" transform="translate(-46.575 -270.598)"/><path class="e" d="M720.594,641.693c.029.023.06.043.09.065h25.071a9.082,9.082,0,0,0-.069-5.713c-1.046-2.466-4.14-4-6.6-2.946a3.756,3.756,0,0,0-1.475,1.167,5.524,5.524,0,0,0-4.676-3.017,5.809,5.809,0,0,0-5.244,4.4,5.005,5.005,0,0,0-5.345-2.572C718.827,634,717.715,639.468,720.594,641.693Z" transform="translate(-497.271 -436.61)"/><path class="e" d="M18.309,619.612c.059.046.121.087.181.131H69.1c.992-4.018,1.342-8.04-.139-11.533-2.111-4.977-8.357-8.085-13.323-5.947a7.583,7.583,0,0,0-2.978,2.356c-1.941-3.474-5.422-6.093-9.44-6.09-5.034,0-9.22,4.12-10.586,8.876-2.2-3.713-6.544-6.307-10.791-5.191C14.742,604.08,12.5,615.121,18.309,619.612Z" transform="translate(-10.372 -413.979)"/><path class="c" d="M255.962,591.446a1.72,1.72,0,0,0-1.539-2.144l-9.792-12.243-2.423,2.258,10.344,11.694a1.73,1.73,0,0,0,3.409.434Z" transform="translate(-167.526 -399.129)"/><path class="j" d="M241.449,572.817l-3.094,2.37a.773.773,0,0,1-1.144-.238l-1.885-3.4a2.143,2.143,0,0,1,3.411-2.6l2.781,2.7a.772.772,0,0,1,.017,1.091.787.787,0,0,1-.085.075Z" transform="translate(-162.465 -392.943)"/><circle class="c" cx="3.935" cy="3.935" r="3.935" transform="translate(69.852 164.614)"/><path class="j" d="M231.942,569.16a6.287,6.287,0,0,0-1.167-2.682,6.526,6.526,0,0,1-.531-.585,3.89,3.89,0,0,0-1.274-1.044c.181-.1.287-.22.287-.35,0-.354-.789-.641-1.762-.641s-1.762.287-1.762.641a.313.313,0,0,0,.1.216,3.75,3.75,0,0,0-2.319,3.127c-.228,2.438-.294,5.554.5,7.525a7.257,7.257,0,0,1,.15,5.114.64.64,0,0,0,.847.8l7.041-2.837a.641.641,0,0,0,.4-.594v-4.309A18.087,18.087,0,0,0,231.942,569.16Z" transform="translate(-154.494 -389.999)"/><path class="c" d="M202.7,599.128a1.721,1.721,0,0,0,1.193-2.354l5.509-14.528-2.794-.721-5.1,14.378a1.73,1.73,0,0,0,1.187,3.225Z" transform="translate(-138.723 -402.217)"/><path class="j" d="M220.227,576.565l-3.53-1.652a.772.772,0,0,1-.372-1.026.82.82,0,0,1,.056-.1l2.145-3.24a2.143,2.143,0,0,1,3.877,1.829l-1.109,3.711a.772.772,0,0,1-.96.518A.759.759,0,0,1,220.227,576.565Z" transform="translate(-149.573 -393.78)"/><path class="j" d="M224.083,532.915a.9.9,0,0,0,.516-.093c.29-.19.262-.622.163-.954a4.966,4.966,0,0,0-3.421-3.329,1.441,1.441,0,0,0-1.589.34,4.047,4.047,0,0,0-5.236.643,5.481,5.481,0,0,0-1.229,2.619c-.336,1.647-1.776,5.046-.979,6.526.531.985,2.974.218,4.007.647a3.412,3.412,0,0,0,3.207-.259,2.617,2.617,0,0,0,1.006-2.951,9.152,9.152,0,0,0-.624-1.136,1.828,1.828,0,0,1-.271-1.241C219.779,533.068,222.885,532.89,224.083,532.915Z" transform="translate(-146.681 -365.335)"/></g></svg>