<svg xmlns="http://www.w3.org/2000/svg" width="243.077" height="186.136" viewBox="0 0 243.077 186.136"><defs><style>.a{fill:#e5e5e5;}.b{fill:#2f2e41;}.c{fill:#e6e6e6;}.d{fill:#fff;}.e{fill:#bc9c61;}.f{fill:#ffb6b6;}</style></defs><g transform="translate(224.062 -591.218)"><path class="a" d="M-189.331,655.991A82.7,82.7,0,0,1-141,640.487a83.057,83.057,0,0,1,83.059,83.042,83.067,83.067,0,0,1-54.915,78.186,83.619,83.619,0,0,1-41.711,3.788,82.137,82.137,0,0,1-14.93-3.919,83.09,83.09,0,0,1-54.562-78.038A82.939,82.939,0,0,1-189.331,655.991Z" transform="translate(0 -29.252)"/><path class="b" d="M-84.85,998.82l.5-1.488,39.325-.141,7.828-.03.232.924,3.836,15.391a83.619,83.619,0,0,1-41.711,3.788,82.136,82.136,0,0,1-14.93-3.919Z" transform="translate(-79.732 -241.013)"/><rect class="c" width="110.795" height="125.368" transform="translate(-91.779 591.218)"/><rect class="d" width="106.65" height="120.064" transform="translate(-89.804 593.87)"/><circle class="c" cx="5.978" cy="5.978" r="5.978" transform="translate(-42.769 709.226) rotate(-85.935)"/><rect class="c" width="34.337" height="3.513" transform="translate(-71.729 636.37)"/><rect class="e" width="51.823" height="3.513" transform="translate(-71.729 646.896)"/><rect class="c" width="46.737" height="3.513" transform="translate(-71.729 657.488)"/><rect class="e" width="72.171" height="3.513" transform="translate(-71.729 667.8)"/><rect class="c" width="58.818" height="3.513" transform="translate(-70.978 677.621)"/><g transform="translate(-189.632 628.957)"><path class="f" d="M98.022,929.051a7.466,7.466,0,1,1-.541,9.869l-39.843,4.813a5.69,5.69,0,0,1-5.915-3.413L45.733,926.3l12.157-4.726L62,929.1l35.265.863a7.5,7.5,0,0,1,.753-.906Z" transform="translate(29.452 -825.095)"/><path class="e" d="M-38.226,887.252c-.278-.109-32.012-6.822-49.016,1.983l-3.306-33.6-1.933-35.9L-79.9,813.8l3.463-7.757,23.588-1.4,4.847,6.647,16.5,5.409Z" transform="translate(111.512 -755.672)"/><path class="e" d="M34.462,859.615,37.38,836.69l6.643-2.022.112.041c.153.056,3.763,1.438,4.752,6.436.948,4.8,8.093,34.653,8.165,34.955l.072.3-16.787,6.716Z" transform="translate(36.144 -773.496)"/><path class="f" d="M-99.085,950.454a7.445,7.445,0,0,1,.921.085,7.467,7.467,0,0,1,6.229,8.526,7.466,7.466,0,0,1-8.526,6.229,7.467,7.467,0,0,1-6.229-8.526l-30.618-25.943a5.69,5.69,0,0,1-1.519-6.658l6.205-13.922,11.731,5.7-2.715,8.126,23.344,26.446a7.456,7.456,0,0,1,1.177-.065Z" transform="translate(139.32 -818.367)"/><path class="e" d="M-128.034,873.51l9.126-25.995c1.026-3.064,2.31-4.926,3.82-5.533a2.357,2.357,0,0,1,1.894-.017l4.092,5.17,3.8,15.955L-115.042,886Z" transform="translate(132.62 -777.715)"/><path class="b" d="M-42.444,727.7H-82.507a3.112,3.112,0,0,1-3.109-3.109V707.323c0-.051,0-.1,0-.153h0A23.141,23.141,0,0,1-62.4,684.106a23.141,23.141,0,0,1,23.063,23.217v17.269A3.113,3.113,0,0,1-42.444,727.7Z" transform="translate(107.435 -684.106)"/><circle class="f" cx="16.965" cy="16.965" r="16.965" transform="matrix(0.995, -0.099, 0.099, 0.995, 31.161, 11.016)"/><path class="b" d="M-16.776,718.248h-24.5l-.252-3.517-1.256,3.517h-3.772l-.5-6.972-2.49,6.972h-7.3V717.9a18.325,18.325,0,0,1,18.3-18.3h3.454a18.326,18.326,0,0,1,18.3,18.3Z" transform="translate(90.351 -693.304)"/><path class="b" d="M-43.534,750.041a3.1,3.1,0,0,1-2.509,1.282,3.2,3.2,0,0,1-.55-.049l-17.939-3.165V718.462h19.747l-.488.569c-6.8,7.933-1.677,20.8,1.983,27.758a3.062,3.062,0,0,1-.243,3.251Z" transform="translate(94.917 -704.503)"/></g><g transform="translate(-49.192 600.982)"><path class="e" d="M219.06,615.25a12.713,12.713,0,1,0,12.712,12.714h0a12.713,12.713,0,0,0-12.713-12.713h0Zm0,3.813a3.814,3.814,0,1,1-3.814,3.814h0A3.814,3.814,0,0,1,219.06,619.063Zm0,18.36a9.261,9.261,0,0,1-7.628-4.071c.061-2.543,5.085-3.942,7.628-3.942s7.566,1.4,7.628,3.942a9.277,9.277,0,0,1-7.628,4.071Z" transform="translate(-206.346 -615.25)"/></g></g></svg>