<svg xmlns="http://www.w3.org/2000/svg" width="199.326" height="204.922" viewBox="0 0 199.326 204.922"><defs><style>.a{fill:#c9caca;}.b{fill:#fff;}.c{fill:#ffb8b8;}.d{fill:#3e3a39;}.e{fill:#bc9c61;}</style></defs><g transform="translate(-248.552 -35.581)"><circle class="a" cx="88.157" cy="88.157" r="88.157" transform="translate(248.552 64.188)"/><circle class="b" cx="80.859" cy="80.859" r="80.859" transform="translate(255.85 71.486)"/><circle class="a" cx="10.801" cy="10.801" r="10.801" transform="translate(325.617 141.836)"/><rect class="a" width="4.671" height="8.757" transform="translate(334.082 75.572)"/><rect class="a" width="4.671" height="8.757" transform="translate(334.082 220.944)"/><rect class="a" width="8.757" height="4.671" transform="translate(259.353 150.302)"/><rect class="a" width="8.757" height="4.671" transform="translate(404.725 150.302)"/><path class="a" d="M450.924,313.62l3.992-9.127,50.014,27.7Z" transform="translate(-117.62 -156.294)"/><rect class="a" width="22.769" height="26.272" transform="translate(325.325 42.878)"/><ellipse class="a" cx="26.272" cy="7.298" rx="26.272" ry="7.298" transform="translate(310.437 35.581)"/><path class="c" d="M636.484,342.12l-1.822,2.535s-2.8,4.6-6.247,4.049,4.267-6.094,4.267-6.094l1.979-1.179Z" transform="translate(-220.264 -177.763)"/><path class="c" d="M672.389,354.681l-.334,3.388s-.126,5.874-3.68,7.234.7-8.081.7-8.081l1.222-2.194Z" transform="translate(-243.181 -185.464)"/><circle class="d" cx="8.889" cy="8.889" r="8.889" transform="translate(424.795 112.89)"/><path class="c" d="M674.6,415.4c-1.168,1.46-.876,6.714-.876,6.714v2.919h6.714V422.7l1.168-7.59S675.766,413.94,674.6,415.4Z" transform="translate(-247.094 -220.327)"/><path class="c" d="M703.177,415.4c-1.168,1.46-.876,6.714-.876,6.714v2.919h6.714V422.7l1.168-7.59S704.345,413.94,703.177,415.4Z" transform="translate(-263.704 -220.327)"/><path class="e" d="M677.434,275.047l-3.015,12.732-5.265,20.257,5.97,1.695S685.473,277.7,687.237,274.6s-.819-4.457-.819-4.457Z" transform="translate(-244.457 -136.332)"/><circle class="c" cx="6.714" cy="6.714" r="6.714" transform="translate(425.996 117.57)"/><path class="c" d="M694.557,251.3c-.584.584,1.459,8.757,1.459,8.757l-6.13,4.379-.876-13.72Z" transform="translate(-255.998 -125.04)"/><path class="e" d="M678.9,280.8c-2.335,2.919-.876,7.59-.876,7.59l1.168,7.59c2.627,1.46,15.18-1.168,15.18-1.168,2.335-4.087-2.043-25.688-2.919-27.148s-3.9-.22-3.9-.22l-6.6,4.89Z" transform="translate(-249.349 -134.473)"/><path class="e" d="M660.828,284.337l-8.247,8.72-13.492,13.658,3.959,4.09s22.941-20.665,25.764-22.312,1.4-3.914,1.4-3.914Z" transform="translate(-226.983 -144.579)"/><path class="d" d="M673.071,368.447s.876.876,6.714,0a64.552,64.552,0,0,1,13.72,0s-1.168-6.13.584-16.055-1.46-16.055-1.46-16.055l-.292-3.211c-1.46-2.043-15.909.73-15.909.73Z" transform="translate(-246.734 -172.499)"/><path class="d" d="M655.3,459.109c-1.168,6.13-6.714,7.882-8.757,8.465a1.814,1.814,0,0,0-1.459,2.335,16.339,16.339,0,0,0,5.546,1.751c2.919.292,5.547-2.335,5.547-2.335a29.621,29.621,0,0,0,5.547-.584c2.627-.584.292-9.925.292-9.925l2.919-21.893-8.465-.292Z" transform="translate(-230.422 -233.094)"/><path class="d" d="M683.878,459.109c-1.168,6.13-6.714,7.882-8.757,8.465a1.814,1.814,0,0,0-1.459,2.335,16.342,16.342,0,0,0,5.547,1.751c2.919.292,5.546-2.335,5.546-2.335a29.621,29.621,0,0,0,5.547-.584c2.627-.584.292-9.925.292-9.925l2.919-21.893-8.465-.292Z" transform="translate(-247.032 -233.094)"/><circle class="d" cx="3.678" cy="3.678" r="3.678" transform="translate(433.115 108.745)"/><path class="d" d="M705.175,209.205a3.678,3.678,0,0,0-3.295-3.658,3.678,3.678,0,1,1,.383,7.336,3.766,3.766,0,0,1-.383-.02A3.678,3.678,0,0,0,705.175,209.205Z" transform="translate(-263.478 -98.774)"/><ellipse class="d" cx="6.13" cy="3.678" rx="6.13" ry="3.678" transform="translate(426.519 116.216)"/></g></svg>