<svg xmlns="http://www.w3.org/2000/svg" width="24" height="24" viewBox="0 0 24 24"><defs><style>.a{fill:none;}.b{fill:#fff;}</style></defs><g transform="translate(-638 -1715)"><rect class="a" width="24" height="24" transform="translate(638 1715)"/><g transform="translate(641 1718)"><path class="b" d="M168,298.628c.069-.167.127-.34.21-.5a1.655,1.655,0,0,1,1.547-.942c.533,0,1.066,0,1.648,0v-1.321h1.119v1.292h6.823V295.87h1.1v1.316c.334,0,.631.014.926,0a1.8,1.8,0,0,1,1.918,2.026c-.05,1.25-.009,2.5-.007,3.757,0,.144,0,.289,0,.449a15.1,15.1,0,0,0-4.4-.234c-3.078-.041-6.157-.012-9.236-.012h-.528v1.177q0,2.928,0,5.857c0,.543.2.755.719.756,2,0,4,.007,5.995,0a.467.467,0,0,1,.529.339,6.625,6.625,0,0,0,.46.837c-.114.011-.209.028-.3.028-2.1,0-4.206-.038-6.308.012A1.977,1.977,0,0,1,168,310.716Zm12.461-.246v1.769h-1.108c0-.481-.014-.944.005-1.405.011-.284-.065-.376-.349-.375-2.032.013-4.064.006-6.1.007-.121,0-.243.016-.395.027v1.734h-1.1v-1.761h-1.139c-1.11,0-1.161.056-1.155,1.219,0,.781,0,1.562,0,2.361h13.044c0-1.029.012-2.033-.006-3.037a.52.52,0,0,0-.555-.537C181.245,298.372,180.885,298.382,180.461,298.382Z" transform="translate(-168 -295.866)"/><path class="b" d="M307.132,416.361a11.921,11.921,0,0,1-.469,1.413,4.5,4.5,0,0,1-4.949,2.472,4.531,4.531,0,1,1,5.336-5.3c.021.1.054.2.082.3Zm-4.5-3.971a3.413,3.413,0,1,0,3.38,3.447A3.435,3.435,0,0,0,302.631,412.39Z" transform="translate(-289.132 -402.34)"/><path class="b" d="M209.132,419.708h3.89v1.069h-3.89Z" transform="translate(-206.29 -410.601)"/><path class="b" d="M213.077,460.686v1.067h-3.9v-1.067Z" transform="translate(-206.335 -448.566)"/><path class="b" d="M355.281,447.045v-2.771h1.093v1.667h1.666v1.1Z" transform="translate(-342.352 -433.294)"/></g></g></svg>