<svg xmlns="http://www.w3.org/2000/svg" width="40" height="40" viewBox="0 0 40 40"><defs><style>.a{fill:#fff;}.b{fill:none;}</style></defs><g transform="translate(-204 -64)"><g transform="translate(-95.979 -121.624)"><path class="a" d="M326.549,206.2a8.275,8.275,0,0,1,2.191.3V191.539a.915.915,0,0,0-.915-.915H310.056a.915.915,0,0,0-.915.915v21.467H308.2a1.22,1.22,0,0,0-1.22,1.22v.683a1.22,1.22,0,0,0,1.22,1.22H318.43a8.288,8.288,0,0,1,8.119-9.932Zm-6.437-10.54a.3.3,0,0,1,.305-.305H323.1a.305.305,0,0,1,.305.305v2.684a.305.305,0,0,1-.305.305h-2.684a.3.3,0,0,1-.305-.305Zm0,5.026a.3.3,0,0,1,.305-.305H323.1a.305.305,0,0,1,.305.305v2.684a.305.305,0,0,1-.305.305h-2.684a.3.3,0,0,1-.305-.305Zm-2.343,7.711a.305.305,0,0,1-.3.305h-2.684a.3.3,0,0,1-.305-.305V205.71a.3.3,0,0,1,.305-.305h2.684a.305.305,0,0,1,.3.305Zm0-5.027a.305.305,0,0,1-.3.305h-2.684a.3.3,0,0,1-.305-.305v-2.684a.3.3,0,0,1,.305-.305h2.684a.305.305,0,0,1,.3.305Zm0-5.026a.305.305,0,0,1-.3.305h-2.684a.3.3,0,0,1-.305-.305v-2.684a.3.3,0,0,1,.305-.305h2.684a.305.305,0,0,1,.3.305Z" transform="translate(0)"/><path class="a" d="M339.347,220.822a6.722,6.722,0,1,0,1.969,4.754A6.678,6.678,0,0,0,339.347,220.822Zm-1.942,6.024h-3.726v-4.209a.915.915,0,1,1,1.83,0v2.379h1.9a.915.915,0,0,1,0,1.83Z" transform="translate(-8.147 -11.007)"/></g><rect class="b" width="40" height="40" transform="translate(204 64)"/></g></svg>