<svg xmlns="http://www.w3.org/2000/svg" width="24" height="24" viewBox="0 0 24 24"><defs><style>.a{fill:#fff;}</style></defs><g transform="translate(954.597 1072.759)"><path class="a" d="M-932.577-1008.827H-952.62c-.108-.025-.217-.046-.323-.076a2.149,2.149,0,0,1-1.653-2.213q0-8.357.005-16.714a2.875,2.875,0,0,1,.142-.869,2.117,2.117,0,0,1,1.98-1.374v.252c0,.842,0,1.683,0,2.525a2.4,2.4,0,0,0,2.462,2.451c.5.012.991.012,1.486,0a2.415,2.415,0,0,0,2.467-2.473c0-.842,0-1.683,0-2.525v-.249h6.908c0,.928,0,1.839,0,2.749a2.424,2.424,0,0,0,2.538,2.5c.455,0,.911.005,1.366,0a2.411,2.411,0,0,0,2.511-2.475c0-.842,0-1.683,0-2.525v-.309a6.288,6.288,0,0,1,.925.3,2.133,2.133,0,0,1,1.207,2.068q-.008,8.31,0,16.621a3.792,3.792,0,0,1-.016.4,2.115,2.115,0,0,1-.737,1.4A2.506,2.506,0,0,1-932.577-1008.827Zm-10.049-2.29h8.054c.768,0,1.129-.353,1.129-1.1q0-4.208,0-8.416c0-.749-.361-1.1-1.127-1.1h-16.085c-.785,0-1.143.348-1.143,1.112q0,4.2,0,8.392c0,.764.359,1.114,1.141,1.114Z" transform="translate(0 -39.932)"/><path class="a" d="M-683.929-1069.495c0-.764,0-1.528,0-2.292a.86.86,0,0,1,.969-.971c.438,0,.876,0,1.313,0a.829.829,0,0,1,.9.873q.013,2.388,0,4.776a.816.816,0,0,1-.881.858c-.462.005-.924,0-1.385,0a.832.832,0,0,1-.91-.9C-683.934-1067.935-683.929-1068.715-683.929-1069.495Z" transform="translate(-253.616)"/><path class="a" d="M-892.335-1069.48q0,1.134,0,2.268a.852.852,0,0,1-.97.964c-.438,0-.876,0-1.313,0a.823.823,0,0,1-.893-.895c-.01-.86,0-1.719,0-2.579,0-.685,0-1.369,0-2.053a.862.862,0,0,1,.982-.98c.43,0,.86,0,1.29,0a.841.841,0,0,1,.906.911C-892.332-1071.056-892.335-1070.268-892.335-1069.48Z" transform="translate(-55.358 -0.002)"/><path class="a" d="M-786.855-866.476c.294,0,.589,0,.884,0a.569.569,0,0,1,.627.621c.008.6.007,1.194,0,1.791a.562.562,0,0,1-.6.629q-.931.025-1.863,0a.562.562,0,0,1-.592-.632q-.01-.883,0-1.767a.579.579,0,0,1,.656-.642C-787.444-866.478-787.149-866.476-786.855-866.476Z" transform="translate(-155.729 -193.619)"/><path class="a" d="M-786.874-786.385c-.295,0-.589,0-.883,0a.579.579,0,0,1-.637-.639q-.009-.883,0-1.767a.58.58,0,0,1,.635-.642c.6-.009,1.194-.01,1.791,0a.574.574,0,0,1,.624.628q.011.9,0,1.791a.577.577,0,0,1-.647.629C-786.285-786.381-786.579-786.385-786.874-786.385Z" transform="translate(-155.73 -266.007)"/><path class="a" d="M-863.942-866.475c.294,0,.589,0,.883,0a.557.557,0,0,1,.625.6c.015.612.014,1.225,0,1.838a.549.549,0,0,1-.589.608q-.93.025-1.862,0a.555.555,0,0,1-.589-.631q-.007-.895,0-1.79a.561.561,0,0,1,.623-.62C-864.547-866.479-864.245-866.475-863.942-866.475Z" transform="translate(-83.507 -193.62)"/><path class="a" d="M-708.168-864.968c0,.294,0,.589,0,.883-.006.4-.193.625-.584.636-.62.018-1.242.016-1.862,0a.549.549,0,0,1-.594-.6q-.02-.919,0-1.838a.555.555,0,0,1,.62-.6q.9-.009,1.791,0a.567.567,0,0,1,.63.638c0,.016,0,.032,0,.048Z" transform="translate(-228.047 -193.604)"/><path class="a" d="M-865.46-787.924c0-.3,0-.6,0-.907a.562.562,0,0,1,.6-.619q.919-.018,1.838,0a.554.554,0,0,1,.6.6q.021.919,0,1.838a.564.564,0,0,1-.64.607q-.883.008-1.767,0a.57.57,0,0,1-.633-.637C-865.463-787.335-865.46-787.629-865.46-787.924Z" transform="translate(-83.521 -265.989)"/><path class="a" d="M-708.167-787.915c0,.3,0,.6,0,.907a.56.56,0,0,1-.607.614q-.907.012-1.815,0a.558.558,0,0,1-.618-.6q-.02-.919,0-1.838a.56.56,0,0,1,.619-.6c.6-.01,1.21-.011,1.815,0a.561.561,0,0,1,.605.617C-708.162-788.52-708.167-788.218-708.167-787.915Z" transform="translate(-228.049 -266)"/></g></svg>