<?xml version="1.0" encoding="utf-8"?>
<!-- Generator: Adobe Illustrator 25.2.3, SVG Export Plug-In . SVG Version: 6.00 Build 0)  -->
<svg version="1.1" id="圖層_1" xmlns="http://www.w3.org/2000/svg" xmlns:xlink="http://www.w3.org/1999/xlink" x="0px" y="0px"
	 viewBox="0 0 100 150" style="enable-background:new 0 0 100 150;" xml:space="preserve">
<style type="text/css">
	.st0{enable-background:new    ;}
	.st1{fill:#DDDDDD;}
</style>
<g class="st0">
	<path class="st1" d="M6,101.1l10.3-13.9c6.6,6.4,14.7,11.4,24.7,11.4c11.2,0,18.9-5.4,18.9-14.7c0-10.5-6.5-16.9-30.6-16.9V51
		c20.4,0,27-6.8,27-16c0-8.4-5.4-13.3-14.9-13.3c-7.9,0-14.4,3.8-21,9.9L9.3,18C18.9,9.6,29.5,4.2,42.6,4.2c21.4,0,36,10.5,36,29.1
		c0,11.7-6.9,19.8-18.4,24.4v0.8c12.4,3.3,22,12.4,22,26.7c0,19.8-17.8,31.3-39,31.3C25.6,116.6,13.8,110,6,101.1z"/>
</g>
<g class="st0">
	<path class="st1" d="M17.2,146.8c2.2,0.6,4.6,1.4,6,1.9l-2.9,1.5c-1.4-0.6-3.8-1.5-6.2-2.2l1.8-1.2H9.2l2.4,0.9
		c-1.8,1.2-4.7,2.1-7.1,2.6c-0.5-0.6-1.5-1.6-2-2.1c2.3-0.3,4.9-0.8,6.3-1.5H5.4v-8.3h15.2v8.3H17.2z M5.7,135.3H3.1v-4.4h3.2
		c-0.3-0.6-0.7-1.2-1.1-1.6l2.5-0.7c0.6,0.7,1.2,1.6,1.6,2.2l-0.3,0.1h2.5v-2.4h2.7v2.4h2.6c0.5-0.7,1.1-1.7,1.5-2.4l2.8,0.7
		c-0.5,0.7-1,1.2-1.4,1.7h3.2v4.4h-2.7v-2.5H5.7V135.3z M6.8,137.7v-4h12.3v4H6.8z M8.1,140.8h9.8v-0.8H8.1V140.8z M8.1,143h9.8
		v-0.8H8.1V143z M8.1,145.3h9.8v-0.8H8.1V145.3z M9.3,136.1h7v-1h-7V136.1z"/>
	<path class="st1" d="M47.6,147.4v2.2h-17v-2.2h7v-1.6h-5.5v-2.2h5.5v-1.3c-3.6,0.3-4.5,0.4-5,0.6c-0.1-0.5-0.5-1.7-0.8-2.4
		c0.4-0.1,0.8-0.3,1.3-0.7c0.3-0.2,0.8-0.6,1.4-1.2h-3.2c-0.2,3.8-0.8,8.4-2.7,11.5c-0.6-0.4-1.8-1.2-2.5-1.4
		c2.2-3.6,2.4-8.8,2.4-12.5v-6.7h17.8v5.9h-15v0.8v0.2h15.7v2.2h-3.7c1.3,1,2.9,2.3,3.7,3.3l-2.2,1.3c-0.3-0.4-0.7-0.9-1.2-1.3
		l-3.3,0.2v1.5H46v2.2h-5.6v1.6H47.6z M31.5,131.8v1.4h12.2v-1.4H31.5z M38.1,138.6c-0.6,0.5-1.2,1.1-1.8,1.6l5.2-0.3
		c-0.3-0.3-0.6-0.5-0.9-0.7l1-0.6H38.1z"/>
	<path class="st1" d="M58.8,145.7h-4.7v2h-2.6v-17.8h7.3V145.7z M54.1,132.3v4.1h2.1v-4.1H54.1z M56.2,143.2v-4.4h-2.1v4.4H56.2z
		 M67.1,133.4v2.2h4.6v2.4H70v1.8h2.2v2.4H70v5.1c0,1.3-0.3,2-1.2,2.4c-0.9,0.4-2.2,0.5-3.9,0.5c-0.1-0.8-0.5-1.9-0.9-2.6
		c1.1,0,2.4,0,2.7,0c0.4,0,0.5-0.1,0.5-0.4v-5h-8.1v-2.4h8.1V138h-7.4v-2.4h4.5v-2.2h-5.2v-2.4h5.2v-2.5h2.7v2.5h5.2v2.4H67.1z
		 M62.4,142.5c1,1.1,2.2,2.7,2.8,3.7l-2.4,1.4c-0.5-1-1.7-2.7-2.7-3.9L62.4,142.5z"/>
	<path class="st1" d="M79,137.7v12.4h-2.7v-20.8h8.9v8.4H79z M79,131.3v1.2h3.6v-1.2H79z M82.6,135.8v-1.3H79v1.3H82.6z M95.9,146.9
		c0,1.5-0.3,2.3-1.2,2.7c-0.9,0.5-2.3,0.5-4.2,0.5c-0.1-0.6-0.3-1.4-0.6-2.2H84v1.2h-2.5v-10h1.1v0l7.8,0v8.2c0.9,0,1.8,0,2.1,0
		c0.4,0,0.6-0.1,0.6-0.5v-9.1h-6.3v-8.4h9.1V146.9z M87.8,141.2H84v1.4h3.8V141.2z M87.8,146v-1.4H84v1.4H87.8z M89.4,131.3v1.2h3.7
		v-1.2H89.4z M93.1,135.8v-1.4h-3.7v1.4H93.1z"/>
</g>
<g>
</g>
<g>
</g>
<g>
</g>
<g>
</g>
<g>
</g>
<g>
</g>
</svg>
