<svg xmlns="http://www.w3.org/2000/svg" xmlns:xlink="http://www.w3.org/1999/xlink" id="&#x5716;&#x5C64;_1" x="0px" y="0px" viewBox="0 0 170.1 53.6" style="enable-background:new 0 0 170.1 53.6;" xml:space="preserve">
<style type="text/css">
	.st0{fill:#00456F;}
	.st1{fill:#4A4F54;}
	.st2{clip-path:url(#SVGID_2_);}
	.st3{fill:#157CC2;}
	.st4{fill:#4A4E54;}
</style>
<g>
	<rect x="86.3" y="22.4" class="st0" width="10.7" height="30.4"></rect>
	<path class="st0" d="M66.8,45.9c-4.7,0-8.5-3.8-8.5-8.5s3.8-8.5,8.5-8.5c2.8,0,5.2,1.3,6.8,3.4h9.5c-3.1-7.5-8.5-11.3-16.4-11.3   c-5.5,0-9.8,1.6-12.8,4.8c-2.8,2.9-4.2,6.8-4.2,11.6c0,4.7,1.4,8.6,4.2,11.5c3,3.2,7.3,4.8,12.8,4.8c9,0,14.5-4.1,16.5-12.4h-8.8   C72.9,44,70.1,45.9,66.8,45.9z"></path>
	<path class="st0" d="M159.4,22.3l-7,9.8l-7-9.8h-10.7l0,0l-0.1,0c0,0,0,0,0,0h-6.6h-1.3h-25.9v7.3h10.2v23.2h10.7V29.6h6.3v0   c4.5,0.2,6.1-5,6.5-6.7c0.2,0,0.4,0,0.6,0l1.7,2.3L147,39.8v2h0v11h10.7V39.6l12.3-17.3H159.4z"></path>
</g>
<g>
	<path class="st1" d="M119.6,9.1c0.2,0.6,0.5,1.5,0.8,2.6c0.2,0.7,0.3,1.2,0.4,1.6l-2.1,0.6c-0.3-1.4-0.6-2.7-1-4v7.3h-2.6v-7   c-0.1,0.4-0.2,0.9-0.4,1.6c-0.1,0.6-0.4,1.6-0.8,3l-1.9-0.6c0.1-0.5,0.3-1.2,0.6-2.2c0.3-1.3,0.5-2.2,0.7-2.8l1.9,0.4V8.2h-2.8V5.6   h7.5v2.6h-2.2v1.4L119.6,9.1z M119.3,3.7h-6.2V1.2h6.2V3.7z M119.3,14.1h4.3V7.9h-3.3V5.2h3.3V0.5h3.1v4.7h3.4v2.7h-3.4v6.3h4v2.6   h-11.3V14.1z"></path>
	<path class="st1" d="M132.4,3V0.8h16.7V3H136v11c-0.1,0.4,0.2,0.6,0.7,0.6h12.7v2.2h-14c-1.5,0-2.3-0.7-2.3-2.1V3H132.4z    M136.7,8.9h5.6v5h-5.6V8.9z M138,8.3V3.8h9.4v4.6H138z M138.9,10.7v1.5h1.3v-1.5H138.9z M140.7,5.5v1h4.1v-1H140.7z M143,9h5.7v5   H143V9z M145.2,10.7v1.5h1.3v-1.5H145.2z"></path>
	<path class="st1" d="M151.2,11.9h17.7V14h-3.3c0.2,0.1,0.5,0.4,0.9,0.6c0.5,0.3,1.2,0.8,2,1.4l-2.5,1.4l-0.8-0.8   c-1.3,0-3.6,0.1-6.6,0.3c-2.7,0.1-4.7,0.2-5.9,0.2l-0.6-1.8c0.7,0,1.3,0,1.9,0c0.5-0.4,1-0.8,1.4-1.2h-4.2V11.9z M168.6,3.5v4.3   h-2.8V5.2h-4.4v3.6h-2.8V5.2h-4.4v2.6h-2.8V3.5h7.2V2.8h-6.6V0.9H168v1.8h-6.6v0.7H168.6z M152.8,11.3V9.4h14.5v1.9H152.8z    M154.6,5.9h3.5V7h-3.5V5.9z M154.6,7.6h3.5v1.1h-3.5V7.6z M157.6,15.1l5.4-0.2l-1.2-0.9h-2.9c-0.1,0.1-0.3,0.3-0.6,0.6   C158,14.8,157.7,15,157.6,15.1z M161.9,5.9h3.5V7h-3.5V5.9z M161.9,7.6h3.5v1.1h-3.5V7.6z"></path>
</g>
<path class="st0" d="M38.6,0.3c-0.1,1.9-0.4,3.3-0.6,4l-6,27.6c-0.4,2-1.5,4-3.1,5.4c-1.7,1.4-3.1,1.6-4.9,1.6  c-1.9,0-3.6-0.5-4.5-1.9c-1-1.4-1.3-3.1-0.8-5.1l6-27.6c0.2-0.7,0.6-2,1.3-3.7H9.7l0,0H0.1c0,0-0.5,0.9,0.7,1.5c0.3,0,0.5,0,0.8,0  c3.1,0,5.7,2.6,5.7,5.8c0,0.4,0,0.8-0.1,1.2c0,0.1,0,0.2,0,0.3l0,0L2.6,30.1C1.2,36.9,1.9,42.3,5,46.5c3.1,4.2,8,6.3,14.8,6.3  c6.7,0,12.8-1.7,17.8-6c4.8-4.1,7.8-10,9.3-16.8l5.6-25.8c0.2-0.8,0.5-2,1.2-3.7L38.6,0.3z"></path>
<g>
	<defs>
		<rect id="SVGID_1_" x="53.7" y="-3.3" width="58.4" height="24.3"></rect>
	</defs>
	<clipPath id="SVGID_2_">
		<use xlink:href="#SVGID_1_" style="overflow:visible;"></use>
	</clipPath>
	<g class="st2">
		<path class="st3" d="M68.8,9.6h6.7c-0.5,3-3.5,5.3-7.2,5.3c-4,0-7.3-2.7-7.3-6.1c0-3.4,3.3-6.1,7.3-6.1c3.7,0,6.8,2.3,7.2,5.3h-7    c-0.8,0-1.5,0.4-1.9,1l-2.5,3.8h1.3c0.4,0,0.8-0.2,1-0.5l1.4-2.2C68.1,9.8,68.4,9.6,68.8,9.6z"></path>
		<g>
			<path class="st4" d="M79.2,12.9V8H82v0.7h-2v1.5h2V11h-2v1.9H79.2z"></path>
			<path class="st4" d="M84.2,12.9c-0.5,0-0.9-0.2-1.2-0.5c-0.3-0.3-0.4-0.7-0.4-1.2c0-0.5,0.1-0.9,0.4-1.2c0.3-0.3,0.7-0.5,1.2-0.5     c0.2,0,0.4,0,0.6,0.1c0.2,0.1,0.3,0.2,0.4,0.4V9.6h0.8v3.2h-0.8v-0.4c-0.1,0.2-0.2,0.3-0.4,0.4C84.6,12.9,84.4,12.9,84.2,12.9z      M84.3,12.3c0.3,0,0.5-0.1,0.7-0.3c0.2-0.2,0.2-0.4,0.2-0.7c0-0.3-0.1-0.5-0.2-0.7c-0.2-0.2-0.4-0.3-0.7-0.3     c-0.3,0-0.5,0.1-0.7,0.3c-0.2,0.2-0.3,0.4-0.3,0.7c0,0.3,0.1,0.5,0.3,0.7C83.7,12.2,84,12.3,84.3,12.3z"></path>
			<path class="st3" d="M91.8,9.6h0.8v3.1c0,0.6-0.2,1.1-0.6,1.4c-0.3,0.2-0.6,0.3-1.1,0.3c-0.5,0-0.8-0.1-1.1-0.3     c-0.3-0.2-0.5-0.5-0.5-0.9H90c0.1,0.4,0.4,0.5,0.8,0.5c0.3,0,0.6-0.1,0.7-0.2c0.2-0.2,0.2-0.4,0.2-0.8v-0.4     c-0.1,0.2-0.2,0.3-0.4,0.4c-0.2,0.1-0.4,0.1-0.6,0.1c-0.5,0-0.9-0.2-1.2-0.5c-0.3-0.3-0.4-0.7-0.4-1.2c0-0.5,0.1-0.9,0.4-1.2     c0.3-0.3,0.7-0.5,1.2-0.5c0.2,0,0.4,0,0.6,0.1c0.2,0.1,0.3,0.2,0.4,0.4V9.6z M90.9,12.3c0.3,0,0.5-0.1,0.7-0.3     c0.2-0.2,0.3-0.4,0.3-0.7s-0.1-0.5-0.3-0.7c-0.2-0.2-0.4-0.3-0.7-0.3c-0.3,0-0.5,0.1-0.7,0.3c-0.2,0.2-0.3,0.4-0.3,0.7     c0,0.3,0.1,0.5,0.3,0.7C90.4,12.2,90.6,12.3,90.9,12.3z"></path>
			<path class="st3" d="M93.5,12.9V8h0.8v4.8H93.5z"></path>
			<path class="st3" d="M97.9,12.5c-0.3,0.3-0.7,0.5-1.2,0.5c-0.5,0-0.9-0.2-1.2-0.5c-0.3-0.3-0.5-0.7-0.5-1.2     c0-0.5,0.2-0.9,0.5-1.2c0.3-0.3,0.7-0.5,1.2-0.5c0.5,0,0.9,0.2,1.2,0.5c0.3,0.3,0.5,0.7,0.5,1.2C98.4,11.7,98.2,12.1,97.9,12.5z      M96,12c0.2,0.2,0.4,0.3,0.7,0.3c0.3,0,0.5-0.1,0.7-0.3c0.2-0.2,0.3-0.4,0.3-0.7c0-0.3-0.1-0.5-0.3-0.7c-0.2-0.2-0.4-0.3-0.7-0.3     c-0.3,0-0.5,0.1-0.7,0.3c-0.2,0.2-0.3,0.4-0.3,0.7C95.7,11.5,95.8,11.8,96,12z"></path>
			<path class="st3" d="M104.1,9.6l-0.8,2.5l-1-2.5h-0.8l1.3,3.4l0,0.2c-0.1,0.3-0.4,0.5-0.7,0.5h-0.4v0.7c0,0,0.4,0,0.4,0     c0.3,0,0.6-0.1,0.9-0.2c0.2-0.2,0.4-0.4,0.6-0.8l1.4-3.7H104.1z"></path>
			<path class="st4" d="M88.3,10.3h0.3l0-0.7h-0.2c-0.5,0-0.9,0.2-1.2,0.5c-0.3,0.3-0.5,0.7-0.5,1.2v1.6c0,0,0,0,0,0h0h0.8v-1.4     c0-0.4,0.1-0.6,0.2-0.8C87.8,10.4,88,10.3,88.3,10.3L88.3,10.3L88.3,10.3z"></path>
			<path class="st3" d="M100.6,10.3h0.3l0-0.7h-0.2c-0.5,0-0.9,0.2-1.2,0.5c-0.3,0.3-0.5,0.7-0.5,1.2v1.6c0,0,0,0,0,0h0h0.8v-1.4     c0-0.4,0.1-0.6,0.2-0.8C100.2,10.4,100.4,10.3,100.6,10.3L100.6,10.3L100.6,10.3z"></path>
		</g>
	</g>
</g>
</svg>