<svg xmlns="http://www.w3.org/2000/svg" width="36" height="36" viewBox="0 0 36 36"><defs><style>.a,.b{fill:none;}.b{stroke:#3e3a39;}.c{fill:#3e3a39;}.d{stroke:none;}</style></defs><g transform="translate(-755 -315)"><rect class="a" width="36" height="36" transform="translate(755 315)"/><g transform="translate(757 317)"><g class="b"><circle class="d" cx="16" cy="16" r="16"/><circle class="a" cx="16" cy="16" r="15.5"/></g><path class="c" d="M266.86,67.891c0-1.586-.017-3.172.009-4.758.009-.523-.125-.723-.674-.712-1.408.026-1.409,0-1.409-1.475,0-.63.019-1.261-.006-1.89-.018-.445.135-.659.581-.613a.454.454,0,0,0,.064,0c1.434-.041,1.419-.041,1.441-1.548a10.681,10.681,0,0,1,.157-2.006c.46-2.211,1.874-3.348,4.292-3.469.952-.048,1.908.006,2.862-.007.435-.006.61.179.6.622-.016.912-.013,1.825,0,2.738.005.412-.164.593-.57.585q-.891-.018-1.781.005c-.689.017-.919.244-.942.934-.018.543.008,1.087-.014,1.629-.016.4.153.533.529.523.678-.018,1.359.027,2.035-.013.551-.032.709.2.65.723-.107.947-.164,1.9-.3,2.843a.674.674,0,0,1-.481.412,13.689,13.689,0,0,1-1.461.021c-1.011.013-.971-.169-.971.964q0,4.531,0,9.06c0,.926,0,.927-.909.928-1.018,0-2.036-.027-3.053.011-.52.019-.662-.193-.657-.683C266.871,71.106,266.861,69.5,266.86,67.891Z" transform="translate(-253.779 -46.398)"/></g></g></svg>