<svg xmlns="http://www.w3.org/2000/svg" width="40" height="40" viewBox="0 0 40 40"><defs><style>.a{fill:none;}.b{fill:#bd9d5d;}.c{fill:#fff;}</style></defs><g transform="translate(-456 -141)"><rect class="a" width="40" height="40" transform="translate(456 141)"/><g transform="translate(456 141)"><path class="b" d="M335.616,406.387a20,20,0,1,0,20,20h0A20,20,0,0,0,335.616,406.387Z" transform="translate(-315.616 -406.387)"/><g transform="translate(4 4)"><g transform="translate(4 2.667)"><path class="c" d="M332.39,411.984a7.1,7.1,0,1,1-7.1,7.1,7.1,7.1,0,0,1,7.1-7.1Z" transform="translate(-320.576 -411.984)"/><path class="c" d="M333.57,435.371a15.453,15.453,0,0,1-11.815-5.5,8.992,8.992,0,0,1,7.948-4.823,1.977,1.977,0,0,1,.572.089,10.052,10.052,0,0,0,6.593,0,1.984,1.984,0,0,1,.572-.089,8.99,8.99,0,0,1,7.944,4.823A15.451,15.451,0,0,1,333.57,435.371Z" transform="translate(-321.755 -407.629)"/></g><rect class="a" width="32" height="32"/></g></g></g></svg>