<?xml version="1.0" encoding="utf-8"?>
<!-- Generator: Adobe Illustrator 25.3.1, SVG Export Plug-In . SVG Version: 6.00 Build 0)  -->
<svg version="1.1" id="圖層_1" xmlns="http://www.w3.org/2000/svg" xmlns:xlink="http://www.w3.org/1999/xlink" x="0px" y="0px"
	 viewBox="0 0 105 40" style="enable-background:new 0 0 105 40;" xml:space="preserve">
<style type="text/css">
	.st0{display:none;}
	.st1{display:inline;}
	.st2{fill:#727171;}
	.st3{display:inline;fill:none;}
	.st4{fill:url(#Path_1463_1_);}
	.st5{fill:url(#Path_1464_1_);}
	.st6{fill:url(#Path_1448_1_);}
	.st7{fill:none;}
	.st8{fill:url(#Path_1447_1_);}
</style>
<g class="st0">
	<g class="st1">
		<path class="st2" d="M44.6,21.3c0.2-0.5,0.5-1.3,0.8-2h-1.5v5.5c0,0.5-0.1,0.9-0.5,1c-0.4,0.2-1,0.2-2,0.2c0-0.3-0.2-0.7-0.3-1
			c0.7,0,1.4,0,1.5,0c0.2,0,0.3-0.1,0.3-0.2v-5.5h-2.3v-0.9h3.6c-0.7-0.7-1.9-1.5-2.9-2l0.6-0.7c0.4,0.2,0.9,0.5,1.4,0.8
			c0.5-0.5,1-1.1,1.4-1.6h-3.8v-0.9h4.4l0.2-0.1l0.6,0.4c-0.6,0.9-1.4,1.9-2.2,2.7c0.4,0.3,0.8,0.6,1.1,0.9l-0.3,0.4h1l0.2,0
			l0.6,0.2c-0.4,1.1-0.8,2.3-1.2,3.1L44.6,21.3z M49.1,24.2c-0.8,0.7-2.1,1.5-3.2,1.9c-0.2-0.2-0.5-0.5-0.7-0.7
			c1.1-0.4,2.4-1.1,3-1.7L49.1,24.2z M48.9,16.1c0.1-0.4,0.2-0.9,0.3-1.3h-2.9v-0.9h7.1v0.9h-3c-0.1,0.5-0.3,0.9-0.4,1.3h2.9v7.3h-6
			v-7.3H48.9z M51.9,16.9h-4.1v1.4h4.1V16.9z M51.9,19h-4.1v1.4h4.1V19z M51.9,21.2h-4.1v1.4h4.1V21.2z M51.1,23.7
			c0.8,0.5,1.9,1.2,2.5,1.8l-0.8,0.6c-0.5-0.5-1.6-1.3-2.5-1.8L51.1,23.7z"/>
		<path class="st2" d="M59.3,22.4c-0.2,1.2-0.6,2.5-1,3.3c-0.2-0.1-0.6-0.3-0.9-0.3c0.4-0.9,0.7-2.1,0.9-3.2L59.3,22.4z M62.4,21.5
			c0-0.2-0.1-0.5-0.2-0.8c-3.6,0.5-4.1,0.7-4.4,0.8c-0.1-0.2-0.2-0.7-0.3-1c0.3,0,0.7-0.4,1.1-0.9c0.3-0.3,0.8-0.9,1.4-1.7
			c-1.8,0.2-2.1,0.3-2.3,0.4c-0.1-0.2-0.2-0.7-0.3-1c0.3-0.1,0.5-0.4,0.9-0.8c0.3-0.4,1.5-2,2.2-3.5l1,0.4c-0.7,1.3-1.6,2.6-2.5,3.7
			l1.8-0.2c0.4-0.5,0.8-1.1,1.1-1.7l0.9,0.6c-1,1.6-2.3,3.1-3.5,4.3l2.6-0.4c-0.1-0.4-0.3-0.9-0.5-1.3l0.8-0.2
			c0.4,0.9,0.8,2.1,1,2.8L62.4,21.5z M60.8,22.1c0.2,1,0.4,2.2,0.5,3.1l-0.9,0.2c-0.1-0.8-0.2-2.1-0.4-3.1L60.8,22.1z M62.5,21.8
			c0.4,0.8,0.7,1.9,0.9,2.7l-0.8,0.3c-0.2-0.7-0.5-1.8-0.9-2.7L62.5,21.8z M69.7,16.4c-0.2,6.2-0.3,8.3-0.9,9
			c-0.3,0.4-0.6,0.5-1.1,0.6c-0.5,0-1.3,0-2.1,0c0-0.3-0.1-0.7-0.3-1c0.9,0.1,1.7,0.1,2,0.1c0.3,0,0.4,0,0.6-0.2
			c0.4-0.4,0.6-2.5,0.8-7.9h-4c-0.3,0.8-0.7,1.5-1.1,2c-0.2-0.2-0.6-0.4-0.9-0.6c1-1.2,1.7-3.1,2.2-5l1,0.2
			c-0.2,0.8-0.5,1.6-0.8,2.4h4.7V16.4z M66.6,22.3c-0.4-0.9-1.5-2.2-2.4-3.1l0.7-0.5c0.9,0.9,2,2.2,2.5,3L66.6,22.3z"/>
		<path class="st2" d="M79.5,24.6c-1.1,0.6-2.8,1.2-4.2,1.5c-0.2-0.2-0.5-0.6-0.8-0.8c1.4-0.2,3.1-0.6,4-1.1L79.5,24.6z M75.9,17.3
			h-1v-2.4h2.3c-0.2-0.4-0.6-0.8-1-1.2l0.9-0.3c0.4,0.4,0.9,1,1.1,1.3l-0.4,0.2h2.2v-1.6h1v1.6h2.1L83,14.8c0.4-0.4,0.9-1.1,1.1-1.5
			l1,0.3c-0.4,0.5-0.8,0.9-1.1,1.2h2.4v2.4h-1v-1.7h-9.6V17.3z M76.2,19.3h9v4.8h-9V19.3z M84.4,16.3v2.3H77v-2.3H84.4z M77.2,20.7
			h7v-0.8h-7V20.7z M77.2,22.1h7v-0.8h-7V22.1z M77.2,23.5h7v-0.8h-7V23.5z M83.4,17H78v1h5.4V17z M82.5,24.2
			c1.5,0.3,3.2,0.9,4.2,1.2l-1,0.6c-0.9-0.4-2.4-0.9-4-1.2L82.5,24.2z"/>
		<path class="st2" d="M93.5,17.8c0,2.4-0.2,5.9-1.6,8.2c-0.2-0.2-0.6-0.4-0.9-0.5c1.4-2.2,1.5-5.4,1.5-7.7V14h10.3v3.1h-9.3V17.8z
			 M103.6,24.8v0.9H93.1v-0.9h4.7v-1.5h-3.6v-0.9h3.6v-1.2c-2.7,0.2-3.1,0.2-3.4,0.3c-0.1-0.2-0.2-0.7-0.3-0.9
			c0.2,0,0.5-0.2,0.8-0.4c0.2-0.2,0.8-0.7,1.4-1.2h-2.7v-0.9h9.6v0.9h-2.9c1,0.7,2.2,1.7,2.8,2.4l-0.8,0.5c-0.2-0.3-0.5-0.6-0.9-0.9
			l-2.6,0.2v1.3h3.7v0.9h-3.7v1.5H103.6z M93.5,14.8v1.4h8.3v-1.4H93.5z M97.5,18.9c-0.5,0.5-1.1,1.1-1.7,1.5l4.6-0.3
			c-0.4-0.3-0.7-0.5-1-0.8l0.7-0.5H97.5z"/>
	</g>
</g>
<g>
	<g>
		<path class="st2" d="M41.4,14.7h1.3v9.2h4.5V25h-5.8V14.7z"/>
		<path class="st2" d="M50.4,14.7h1.3V25h-1.3V14.7z"/>
		<path class="st2" d="M55.9,14.7h1.3l3.7,6.5l1.1,2.1h0.1c-0.1-1-0.2-2.2-0.2-3.2v-5.3h1.2V25h-1.3l-3.7-6.5L57,16.4H57
			c0.1,1,0.2,2.1,0.2,3.2V25h-1.2V14.7z"/>
		<path class="st2" d="M67.4,14.7h5.9v1.1h-4.6V19h3.9v1.1h-3.9v3.7h4.8V25h-6.1V14.7z"/>
		<path class="st2" d="M81.4,16.5h-5v-0.9h5V16.5z M80.8,25.2h-3.1v0.7h-0.8v-4.7h3.9V25.2z M76.9,18.3v-0.8h3.9v0.8H76.9z
			 M76.9,19.3h3.9v0.8h-3.9V19.3z M77.7,22v2.3h2.2V22H77.7z M78.8,15.5c-0.2-0.5-0.7-1.3-1-1.9l0.7-0.4c0.4,0.6,0.9,1.3,1.1,1.8
			L78.8,15.5z M88.8,15.3c0,0,0,0.4,0,0.5c-0.2,6.6-0.4,8.9-0.9,9.5c-0.3,0.4-0.6,0.5-1,0.6s-1.2,0-1.9,0c0-0.3-0.1-0.7-0.3-1
			c0.8,0.1,1.5,0.1,1.8,0.1c0.3,0,0.4,0,0.5-0.2c0.4-0.5,0.6-2.6,0.8-8.5h-4.6c-0.3,0.5-0.5,1-0.8,1.4h3.7v5.6h-3V24h-0.8v-6
			c-0.1,0.2-0.3,0.3-0.4,0.5c-0.2-0.2-0.6-0.5-0.9-0.6c1.1-1.1,1.9-2.8,2.4-4.6l1,0.2c-0.2,0.6-0.4,1.3-0.7,1.8H88.8z M83.1,18.5V20
			h2.2v-1.5H83.1z M85.2,22.4v-1.5h-2.2v1.5H85.2z"/>
		<path class="st2" d="M93.4,18.7V26h-1V13.8h5v4.9H93.4z M93.4,14.7v1.2h3v-1.2H93.4z M96.4,17.9v-1.3h-3v1.3H96.4z M96.3,24.1v0.8
			h-1V20h5.2v4.1H96.3z M96.3,20.9v2.3h3.3v-2.3H96.3z M103.8,24.6c0,0.7-0.2,1-0.6,1.2c-0.5,0.2-1.3,0.2-2.5,0.2
			c-0.1-0.3-0.2-0.8-0.4-1.1c0.9,0,1.8,0,2.1,0c0.3,0,0.3-0.1,0.3-0.3v-5.9h-4.1v-4.9h5.2V24.6z M99.6,14.7v1.2h3.1v-1.2H99.6z
			 M102.7,17.9v-1.3h-3.1v1.3H102.7z"/>
	</g>
</g>
<g class="st0">
	<g class="st1">
		<path class="st2" d="M53.2,24.4v1H40.8v-1h6.8c0.8-1.8,1.6-4.7,2.1-6.7l1.2,0.2c-0.6,2.1-1.4,4.7-2.1,6.5H53.2z M52.6,16.9H41.4
			v-1h11.2V16.9z M44.7,23.8c-0.2-1.6-0.8-4-1.3-5.9l1-0.3c0.5,1.9,1.1,4.3,1.4,5.9L44.7,23.8z M46.7,15.7c-0.1-0.6-0.4-1.6-0.7-2.3
			l1-0.3c0.3,0.7,0.6,1.6,0.7,2.2L46.7,15.7z"/>
		<path class="st2" d="M62.1,21.3c0.7,1.1,1.6,2.6,1.9,3.6l-0.9,0.5C63,25,62.8,24.5,62.5,24c-3.5,1.2-4,1.4-4.3,1.7
			c-0.1-0.3-0.3-0.8-0.4-1.1c0.2-0.1,0.6-0.4,0.6-0.9V14h5.3v6.6h-4.3V24l2.7-0.9c-0.3-0.5-0.6-1-0.8-1.4L62.1,21.3z M59.4,14.9v1.8
			h3.3v-1.8H59.4z M62.7,19.6v-1.9h-3.3v1.9H62.7z M69.6,22.1c0,0.6-0.1,0.9-0.5,1.1c-0.4,0.2-1,0.2-2,0.2c0-0.3-0.2-0.7-0.3-1
			c0.7,0,1.4,0,1.6,0c0.2,0,0.3-0.1,0.3-0.3v-7H66v11h-1v-12h4.6V22.1z"/>
		<path class="st2" d="M81.1,19.5c1.2,2.1,3.6,4.1,6,5c-0.3,0.2-0.6,0.6-0.8,0.9c-1.9-0.9-3.8-2.4-5.2-4.2V26H80v-4.8
			c-1.4,1.8-3.3,3.3-5.1,4.2c-0.2-0.3-0.5-0.7-0.7-0.9c2.3-0.9,4.6-2.9,5.9-4.9v-3.4h-5.4v-1H80v-1.9h1.1v1.9h5.6v1h-5.6V19.5z
			 M78.1,16.7c-0.1,0.6-0.3,1.1-0.5,1.7c0.6,0.5,1.2,1.1,1.6,1.5l-0.7,0.7c-0.3-0.4-0.8-0.9-1.3-1.4c-0.5,0.9-1.1,1.6-1.8,2.2
			c-0.2-0.2-0.6-0.5-0.8-0.7c1.3-1,2.1-2.5,2.5-4.3L78.1,16.7z M84.7,16.7c-0.1,0.6-0.3,1.1-0.5,1.7c0.9,0.7,2,1.6,2.5,2.2L86,21.2
			c-0.5-0.5-1.4-1.3-2.2-2c-0.3,0.6-0.8,1.2-1.2,1.7c-0.2-0.2-0.6-0.4-0.9-0.6c1-0.9,1.7-2.2,2-3.8L84.7,16.7z"/>
		<path class="st2" d="M96.9,16.2h-4.4v2.3h-1v-3h5.4v-0.9h-4.7v-0.7h10.6v0.7h-4.8v0.9h5.4v3h-1v-2.3h-4.4v3.2h-1V16.2z M102,25
			c0.7,0,0.9-0.2,1-1.6c0.2,0.2,0.6,0.3,0.9,0.3c-0.2,1.7-0.5,2.1-1.8,2.1h-3.2c-1.6,0-2-0.3-2-1.4V24h-3.1v0.7h-1v-4.9h9.4V24h-4.3
			v0.4c0,0.5,0.2,0.6,1,0.6H102z M92.8,18.6c0.9-0.1,2.1-0.3,3.3-0.5l0,0.7C95,19,94,19.2,93.1,19.4L92.8,18.6z M93.4,16.5
			c0.9,0.1,2.1,0.5,2.7,0.7l-0.3,0.6c-0.6-0.3-1.8-0.6-2.7-0.8L93.4,16.5z M93.7,20.6v1h3.1v-1H93.7z M96.8,23.3v-1h-3.1v1H96.8z
			 M101.1,20.6h-3.3v1h3.3V20.6z M101.1,23.3v-1h-3.3v1H101.1z M101.7,19.4c-0.8-0.3-2.2-0.6-3.3-0.8l0.3-0.6
			c1.1,0.1,2.5,0.4,3.2,0.7L101.7,19.4z M101.7,17c-0.8,0.3-1.9,0.6-2.7,0.8l-0.4-0.5c0.8-0.2,2-0.6,2.6-0.8L101.7,17z"/>
	</g>
</g>
<g id="icon_reservation" transform="translate(-884 -1773)" class="st0">
	<rect id="Rectangle_1678" x="884" y="1773" class="st3" width="40" height="40"/>
	<g id="Group_1911" transform="translate(891 1780.695)" class="st1">
		
			<linearGradient id="Path_1463_1_" gradientUnits="userSpaceOnUse" x1="32.1484" y1="23.5028" x2="31.3454" y2="24.1878" gradientTransform="matrix(22.551 0 0 -26.614 -706.3961 642.3802)">
			<stop  offset="0" style="stop-color:#BD9D5D"/>
			<stop  offset="0.997" style="stop-color:#9C8750"/>
		</linearGradient>
		<path id="Path_1463" class="st4" d="M20.3,12.6c0.8,0,1.5,0.1,2.3,0.3V-2.7c0-0.5-0.4-1-0.9-1c0,0,0,0,0,0H3.2
			c-0.5,0-0.9,0.4-0.9,1v22.4h-1c-0.7,0-1.3,0.6-1.3,1.3v0.7c0,0.7,0.6,1.3,1.3,1.3h10.6c-0.1-0.6-0.2-1.1-0.2-1.7
			C11.7,16.4,15.5,12.6,20.3,12.6C20.3,12.6,20.3,12.6,20.3,12.6z M13.6,1.6c0-0.2,0.1-0.3,0.3-0.3l0,0h2.8c0.2,0,0.3,0.1,0.3,0.3
			c0,0,0,0,0,0v2.8c0,0.2-0.1,0.3-0.3,0.3l0,0h-2.8c-0.2,0-0.3-0.1-0.3-0.3l0,0V1.6z M13.6,6.8c0-0.2,0.1-0.3,0.3-0.3l0,0h2.8
			c0.2,0,0.3,0.1,0.3,0.3l0,0v2.8c0,0.2-0.1,0.3-0.3,0.3l0,0h-2.8c-0.2,0-0.3-0.1-0.3-0.3l0,0V6.8z M11.2,14.8
			c0,0.2-0.1,0.3-0.3,0.3l0,0H8.1c-0.2,0-0.3-0.1-0.3-0.3l0,0V12c0-0.2,0.1-0.3,0.3-0.3l0,0h2.8c0.2,0,0.3,0.1,0.3,0.3l0,0V14.8z
			 M11.2,9.6c0,0.2-0.1,0.3-0.3,0.3l0,0H8.1c-0.2,0-0.3-0.1-0.3-0.3l0,0V6.8c0-0.2,0.1-0.3,0.3-0.3l0,0h2.8c0.2,0,0.3,0.1,0.3,0.3
			l0,0V9.6z M11.2,4.4c0,0.2-0.1,0.3-0.3,0.3l0,0H8.1c-0.2,0-0.3-0.1-0.3-0.3l0,0V1.6c0-0.2,0.1-0.3,0.3-0.3l0,0h2.8
			c0.2,0,0.3,0.1,0.3,0.3c0,0,0,0,0,0V4.4z"/>
		
			<linearGradient id="Path_1464_1_" gradientUnits="userSpaceOnUse" x1="38.8723" y1="9.9422" x2="38.1643" y2="10.6502" gradientTransform="matrix(13.9336 0 0 -14.0302 -516.6731 165.7405)">
			<stop  offset="0" style="stop-color:#BD9D5D"/>
			<stop  offset="0.997" style="stop-color:#9C8750"/>
		</linearGradient>
		<path id="Path_1464" class="st5" d="M25,16.3c-2.7-2.7-7.1-2.7-9.8,0c0,0,0,0,0,0c-2.7,2.7-2.7,7.2,0,9.9c2.7,2.7,7.1,2.7,9.8,0
			c0,0,0,0,0,0C27.7,23.5,27.7,19.1,25,16.3z M22.9,22.6h-3.9v-4.4c0-0.5,0.4-0.9,1-0.9c0.5,0,0.9,0.4,0.9,0.9v2.5h2
			c0.5,0,1,0.4,1,1C23.9,22.2,23.5,22.6,22.9,22.6L22.9,22.6z"/>
	</g>
</g>
<g id="icon_line" transform="translate(289 -310)">
	<g id="Group_1897" transform="translate(-283 316)">
		<g id="Group_1882">
			
				<linearGradient id="Path_1448_1_" gradientUnits="userSpaceOnUse" x1="35.0997" y1="20.5953" x2="34.2922" y2="21.4378" gradientTransform="matrix(20.2055 0 0 -19.3563 -686.9182 418.6101)">
				<stop  offset="0" style="stop-color:#BD9D5D"/>
				<stop  offset="0.997" style="stop-color:#9C8750"/>
			</linearGradient>
			<path id="Path_1448" class="st6" d="M26.8,11.1v1.4c0,0.1,0,0.1,0,0.2c-0.1,0.6-0.2,1.2-0.4,1.7c-0.5,1.5-1.4,2.9-2.6,4
				c-1.3,1.3-2.7,2.5-4.2,3.6c-1.6,1.2-3.3,2.3-5,3.2c-0.3,0.2-0.7,0.3-1.1,0.4c-0.3,0.1-0.5-0.1-0.5-0.5c0-0.1,0-0.2,0-0.3
				c0.1-0.4,0.1-0.9,0.2-1.3c0.1-1-0.1-1.3-1.1-1.6c-0.7-0.2-1.4-0.3-2.1-0.4c-2.7-0.7-5.1-2.2-6.7-4.4C1.4,14.7,1,11.4,2.2,8.5
				c1-2.3,2.7-4.2,5-5.3c2.8-1.5,6-2.1,9.2-1.6c2.6,0.3,5,1.4,7,3.1c1.6,1.3,2.7,3.1,3.2,5.1C26.6,10.3,26.7,10.7,26.8,11.1z
				 M14,11.5L14,11.5c0.1,0,0.1,0.1,0.2,0.2c0.8,1.1,1.6,2.1,2.4,3.2c0.1,0.2,0.3,0.3,0.5,0.3c0.4,0.1,0.8-0.3,0.8-0.8V9.6
				c0-0.1,0-0.2,0-0.3C17.7,9,17.4,8.8,17,8.8c-0.2,0.1-0.4,0.2-0.5,0.4c0,0.1-0.1,0.2,0,0.4v2.7c0,0.1,0,0.1,0,0.2
				c-0.1-0.1-0.1-0.1-0.1-0.2c-0.8-1.1-1.6-2.1-2.4-3.2c-0.1-0.3-0.5-0.4-0.8-0.3c-0.3,0.1-0.5,0.4-0.4,0.7v5c0,0.4,0.3,0.6,0.6,0.6
				h0c0,0,0.1,0,0.1,0c0.3-0.1,0.6-0.3,0.5-0.7C14.1,13.5,14.1,12.5,14,11.5L14,11.5z M20,10.2h1.8c0.4,0,0.7-0.2,0.7-0.6
				c0-0.4-0.2-0.7-0.6-0.7c0,0,0,0,0,0c0,0-0.1,0-0.1,0h-2.4c-0.4,0-0.7,0.2-0.7,0.6c0,0,0,0,0,0c0,0,0,0.1,0,0.1v4.9
				c0,0.4,0.2,0.7,0.6,0.7c0,0,0,0,0,0c0,0,0.1,0,0.1,0h2.4c0.1,0,0.2,0,0.3,0c0.3-0.1,0.5-0.4,0.4-0.7c0-0.3-0.3-0.5-0.6-0.5
				c-0.5,0-1.1,0-1.6,0c-0.1,0-0.2,0-0.3,0v-1.2h1.7c0.4,0,0.7-0.2,0.7-0.6s-0.2-0.7-0.6-0.7c0,0,0,0,0,0c0,0-0.1,0-0.1,0
				c-0.5,0-1,0-1.5,0H20L20,10.2z M7.3,13.9V9.6c0-0.1,0-0.2,0-0.3C7.3,9,7,8.8,6.7,8.8c-0.3,0-0.6,0.3-0.6,0.6c0,0.3,0,0.6,0,0.9
				v4.1c0,0.4,0.2,0.7,0.6,0.7c0.9,0,1.7,0,2.6,0c0.3,0,0.6-0.3,0.6-0.6c0-0.3-0.2-0.6-0.6-0.7l0,0c-0.5,0-1.1,0-1.6,0L7.3,13.9z
				 M10.5,12L10.5,12v2.4c0,0.1,0,0.3,0.1,0.4c0.1,0.3,0.4,0.4,0.7,0.3c0.3-0.1,0.5-0.3,0.5-0.6V9.5c0-0.1,0-0.1,0-0.2
				c-0.1-0.3-0.4-0.5-0.7-0.4c-0.3,0-0.6,0.3-0.6,0.6C10.5,10.3,10.5,11.2,10.5,12L10.5,12z"/>
		</g>
	</g>
	<rect id="Rectangle_1681" x="-289" y="310" class="st7" width="40" height="40"/>
</g>
<g id="icon_TEL" transform="translate(410 -310)" class="st0">
	<g id="Group_1898" transform="translate(-404 316)" class="st1">
		<g id="Group_1883">
			<g id="Group_1843">
				
					<linearGradient id="Path_1447_1_" gradientUnits="userSpaceOnUse" x1="35.7318" y1="20.34" x2="34.6762" y2="21.3944" gradientTransform="matrix(19.3282 0 0 -19.3612 -668.0557 418.8036)">
					<stop  offset="0" style="stop-color:#BD9D5D"/>
					<stop  offset="0.997" style="stop-color:#9C8750"/>
				</linearGradient>
				<path id="Path_1447" class="st8" d="M6.6,1.5C7,1.6,7.5,1.8,7.8,2.1c0.1,0,0.1,0.1,0.2,0.1c1.1,1.1,2.2,2.2,3.3,3.3
					c0.8,0.7,0.9,1.9,0.4,2.9C11.4,8.7,11,9,10.6,9.2c-0.7,0.2-1.2,0.7-1.5,1.3c-0.2,0.4-0.2,0.9-0.1,1.3c0.4,1.2,1,2.3,1.9,3.3
					c0.9,1.1,2.1,2,3.4,2.7c0.5,0.3,1.2,0.5,1.8,0.4c0.8-0.1,1.4-0.6,1.8-1.2c0.1-0.4,0.3-0.7,0.6-1c0.8-0.9,2.2-1,3.1-0.2
					c0.3,0.2,0.5,0.5,0.7,0.7c0.9,0.9,1.7,1.8,2.7,2.6c1,0.9,1,2.5,0.1,3.5c0,0,0,0,0,0c0,0-0.1,0.1-0.1,0.1c-0.7,0.7-1.4,1.3-2,2
					c-0.6,0.6-1.5,1-2.4,1c-1.2,0-2.4-0.2-3.6-0.7c-1.2-0.5-2.3-1.1-3.4-1.8c-3.1-2-5.8-4.5-8.1-7.5c-1.2-1.6-2.3-3.3-3.1-5.1
					C1.9,9.5,1.6,8.4,1.5,7.3c0-0.1,0-0.1,0-0.2V6.7c0-0.1,0-0.2,0-0.3c0-0.8,0.4-1.6,1-2.1c0.6-0.6,1.1-1.1,1.7-1.7
					c0.4-0.5,1-0.9,1.7-1.1L6.6,1.5z"/>
			</g>
		</g>
	</g>
	<rect id="Rectangle_1680" x="-410" y="310" class="st3" width="40" height="40"/>
</g>
<g>
</g>
<g>
</g>
<g>
</g>
<g>
</g>
<g>
</g>
<g>
</g>
</svg>
