<svg xmlns="http://www.w3.org/2000/svg" width="36" height="36" viewBox="0 0 36 36"><defs><style>.a,.b{fill:none;}.b{stroke:#3e3a39;}.c{fill:#3e3a39;}.d{stroke:none;}</style></defs><g transform="translate(-808 -315)"><rect class="a" width="36" height="36" transform="translate(808 315)"/><g transform="translate(810 317)"><g class="b"><circle class="d" cx="16" cy="16" r="16"/><circle class="a" cx="16" cy="16" r="15.5"/></g><g transform="translate(5 12)"><path class="c" d="M427.159,129.589q0,.949,0,1.9c0,.5.007,1.007,0,1.51a.839.839,0,0,1-1.672.116,1.748,1.748,0,0,1-.026-.3q0-2.8,0-5.6c0-.582.267-.941.73-1a.931.931,0,0,1,.9.423q1.374,1.794,2.758,3.581c.067.087.139.169.26.316.009-.185.018-.291.018-.4,0-1.1,0-2.193.006-3.289a.761.761,0,0,1,.67-.789.8.8,0,0,1,.911.408,1.24,1.24,0,0,1,.112.517q.012,2.953,0,5.906c0,.716-.556,1.143-1.162.892a1.394,1.394,0,0,1-.515-.441c-.9-1.151-1.786-2.313-2.677-3.47-.08-.1-.162-.205-.243-.308Z" transform="translate(-416.868 -125.871)"/><path class="c" d="M476.084,129.709v1.49h.752c.842,0,1.684,0,2.525,0a.856.856,0,0,1,.957.792.875.875,0,0,1-.9.82c-.059,0-.119,0-.178,0q-1.9,0-3.806,0c-.747,0-1.081-.318-1.082-1.024q0-2.9,0-5.806c0-.693.327-1.015,1.05-1.018,1.245-.006,2.49,0,3.734,0a1.029,1.029,0,0,1,.833.294.73.73,0,0,1,.129.845.833.833,0,0,1-.8.468c-.937,0-1.873,0-2.81,0h-.405v1.5c.118.006.242.016.366.016.782.005,1.565,0,2.347.018a.772.772,0,0,1,.749.649.76.76,0,0,1-.488.846,1.863,1.863,0,0,1-.59.082c-.664.01-1.328,0-1.992,0C476.353,129.694,476.227,129.7,476.084,129.709Z" transform="translate(-458.319 -124.963)"/><path class="c" d="M370.719,132.328c.685,0,1.333,0,1.981,0a2.691,2.691,0,0,1,.526.054.769.769,0,0,1,.083,1.491,1.6,1.6,0,0,1-.453.062q-1.4.008-2.807,0c-.692,0-1.029-.3-1.031-.96-.008-1.967,0-3.933,0-5.9a.866.866,0,0,1,1.379-.785.876.876,0,0,1,.327.777c0,1.62,0,3.241,0,4.861Z" transform="translate(-369.013 -125.942)"/><path class="c" d="M406.917,129.9c0,1.018.011,2.035,0,3.053a.81.81,0,0,1-1.062.8.745.745,0,0,1-.586-.565,1.577,1.577,0,0,1-.039-.4q0-2.9,0-5.8c0-.522.188-.838.551-.956a.822.822,0,0,1,1.133.75c.023.726.008,1.454.009,2.18q0,.47,0,.94Z" transform="translate(-399.699 -125.82)"/></g></g></g></svg>