<svg xmlns="http://www.w3.org/2000/svg" width="36" height="36" viewBox="0 0 36 36"><defs><style>.a,.b{fill:none;}.b{stroke:#3e3a39;}.c{fill:#3e3a39;}.d{stroke:none;}</style></defs><g transform="translate(-862 -314)"><rect class="a" width="36" height="36" transform="translate(862 314)"/><g transform="translate(864 316)"><g class="b"><circle class="d" cx="16" cy="16" r="16"/><circle class="a" cx="16" cy="16" r="15.5"/></g><g transform="translate(7.111 7.111)"><g transform="translate(0)"><path class="c" d="M-321.339,372.031c-.181.156-.372.3-.542.47-1.113,1.1-2.178,2.252-3.343,3.293a4.012,4.012,0,0,1-5.591-.219,4.047,4.047,0,0,1,.023-5.635q2.023-2.1,4.128-4.126a4.04,4.04,0,0,1,5.866.176.969.969,0,0,1,.059,1.386.959.959,0,0,1-1.413-.024,2.145,2.145,0,0,0-3.352.035c-1.289,1.29-2.59,2.567-3.862,3.873a2.1,2.1,0,0,0,1.03,3.573,2,2,0,0,0,1.943-.569c.729-.714,1.453-1.433,2.163-2.165a.5.5,0,0,1,.63-.156,3.24,3.24,0,0,0,2.193,0Z" transform="translate(331.944 -359.046)"/><path class="c" d="M-250.889,298.2l2.309-2.3c.463-.461.914-.934,1.388-1.382a4.059,4.059,0,0,1,5.636.005,3.986,3.986,0,0,1,.244,5.526c-1.416,1.559-2.91,3.056-4.465,4.477a3.967,3.967,0,0,1-5.672-.3.983.983,0,0,1-.06-1.418.96.96,0,0,1,1.412.051,2.1,2.1,0,0,0,2.728.462,2.166,2.166,0,0,0,.417-.322c1.36-1.353,2.73-2.7,4.068-4.07a2.1,2.1,0,0,0-1.059-3.568,2.028,2.028,0,0,0-1.97.611c-.713.711-1.431,1.417-2.133,2.138a.471.471,0,0,1-.595.154A3.732,3.732,0,0,0-250.889,298.2Z" transform="translate(258.091 -293.385)"/></g></g></g></g></svg>