<svg xmlns="http://www.w3.org/2000/svg" width="36" height="36" viewBox="0 0 36 36"><defs><style>.a{fill:none;}.b{fill:#fff;}.c{fill:#354762;}</style></defs><g transform="translate(-907 -535)"><rect class="a" width="36" height="36" transform="translate(907 535)"/><g transform="translate(2 2)"><circle class="b" cx="16" cy="16" r="16" transform="translate(907 535)"/><g transform="translate(914 542)"><g transform="translate(0 0)"><path class="c" d="M-542.037-259.467h3.288c0,.084.01.159.01.235q0,3.431,0,6.861c0,.279,0,.279-.272.279q-2.616,0-5.232,0c-.619,0-1.238-.018-1.857-.018-.684,0-1.367.018-2.051.018s-1.367-.019-2.051-.018q-3.122.005-6.244.019h-.294v-17.958h7.327v3.29h-4.048v4.8c0,2.1,0,4.2,0,6.3,0,.2.049.262.256.261q5.454-.009,10.908,0c.218,0,.269-.06.267-.272-.01-1.175,0-2.351,0-3.526Z" transform="translate(556.739 270.091)"/><path class="c" d="M-405.785-261.047l-3.7-3.711-7.081,7.1-2.553-2.554,7.086-7.077-3.661-3.653h9.6c.3,0,.3,0,.3.3q0,4.327,0,8.654Z" transform="translate(423.785 270.946)"/></g></g></g></g></svg>