<?xml version="1.0" encoding="utf-8"?>
<!-- Generator: Adobe Illustrator 25.2.3, SVG Export Plug-In . SVG Version: 6.00 Build 0)  -->
<svg version="1.1" id="圖層_1" xmlns="http://www.w3.org/2000/svg" xmlns:xlink="http://www.w3.org/1999/xlink" x="0px" y="0px"
	 viewBox="0 0 100 150" style="enable-background:new 0 0 100 150;" xml:space="preserve">
<style type="text/css">
	.st0{enable-background:new    ;}
	.st1{fill:#DDDDDD;}
</style>
<g class="st0">
	<path class="st1" d="M8.5,101.7c28.9-27.6,48-46.5,48-62.5c0-10.9-6-17.5-16.6-17.5c-8.1,0-14.7,5.4-20.4,11.5l-12-12
		C17.7,10.2,27.6,4.2,42.7,4.2c21,0,34.9,13.3,34.9,33.7c0,18.9-17.4,38.4-37.2,59.1c5.5-0.6,12.9-1.2,18.1-1.2h24.3v18.6H8.5V101.7
		z"/>
</g>
<g class="st0">
	<path class="st1" d="M19.4,141.6c1.2,1.1,2.9,2.1,4.5,2.7c-0.6,0.5-1.4,1.5-1.8,2.1c-1.3-0.6-2.5-1.4-3.6-2.4v1.7h-4.2v1.5h7.6v2.3
		H4.1v-2.3h7.3v-1.5H7.3v-1.4c-1.1,1-2.4,1.8-3.7,2.4c-0.4-0.7-1.2-1.6-1.8-2.1c1.7-0.6,3.4-1.7,4.7-2.9H2.1v-2.3h4.4v-6.9H3.3v-2.2
		h3.2v-1.7h2.8v1.7h7.3v-1.7h2.8v1.7h3.2v2.2h-3.2v6.9h4.3v2.3H19.4z M17.9,143.6c-0.6-0.6-1.2-1.3-1.7-1.9H9.7
		c-0.5,0.7-1,1.3-1.6,1.9h3.3v-1.4h2.8v1.4H17.9z M9.3,132.5v1h7.3v-1H9.3z M9.3,136.4h7.3v-1H9.3V136.4z M9.3,139.4h7.3v-1H9.3
		V139.4z"/>
	<path class="st1" d="M41.6,135.8c1.5,3.4,3.8,6.6,6.5,8.4c-0.7,0.6-1.7,1.6-2.2,2.4c-0.9-0.7-1.7-1.5-2.5-2.4v2h-4.8v3.9h-2.9v-3.9
		h-4.9v-2.1c-0.8,1-1.7,1.8-2.6,2.6c-0.5-0.7-1.4-1.7-2-2.3c2.7-1.9,5.1-5.2,6.5-8.7h-5.7V133h8.7v-4.5h2.9v4.5h8.8v2.8H41.6z
		 M35.8,143.4v-7.6h-0.2c-1,2.8-2.4,5.5-4.1,7.6H35.8z M42.8,143.4c-1.6-2.2-3-4.8-4-7.6h-0.1v7.6H42.8z"/>
	<path class="st1" d="M65.5,132.6c1.3,1.2,3.7,1.8,6.9,2c-0.6,0.5-1.2,1.5-1.5,2.2c-2.6-0.3-4.6-1.1-6.1-2.3c-0.9,1-2.8,1.9-6.7,2.4
		c-0.2-0.4-0.6-1-0.9-1.5H51v-2.1h7v1.4c4.4-0.5,5-1.5,5-2.4v-0.3h-1.4c-0.5,0.8-1,1.5-1.6,2c-0.4-0.4-1.5-1.1-2-1.4
		c1.2-1,2.2-2.6,2.7-4.1l2.4,0.5c-0.1,0.3-0.3,0.7-0.4,1h6.6l0.4-0.1l1.9,0.6c-0.6,1.3-1.4,2.7-2.1,3.7l-2.1-0.8
		c0.3-0.4,0.6-0.9,0.8-1.3h-2.6v0.5V132.6z M66.2,146.3c2.1,0.8,4.4,1.7,5.8,2.4l-2.5,1.5c-1.3-0.8-3.7-1.9-6-2.7l1.4-1.1h-6.5
		l2,0.9c-1.9,1.2-4.9,2.4-7.2,3c-0.5-0.5-1.4-1.6-2-2c2.2-0.4,4.7-1.1,6.3-1.9H54v-9.4h15.5v9.4H66.2z M57.5,131.6h-5.9v-2h5.9
		V131.6z M56.7,139.5h10.1v-1H56.7V139.5z M56.7,142h10.1v-1H56.7V142z M56.7,144.6h10.1v-1H56.7V144.6z"/>
	<path class="st1" d="M83.8,134.5h-8.5v-2.2H79c-0.3-0.9-0.9-2-1.4-2.9l2-1c0.6,1,1.2,2.2,1.6,3.1l-1.4,0.8h4.1V134.5z M76.3,137.6
		v-2.1H83v2.1H76.3z M76.3,138.6H83v2.1h-6.8V138.6z M83,148.9h-4.6v1h-2.1v-8H83V148.9z M78.4,144v2.6h2.5V144H78.4z M94.6,129.6
		c-0.2,7.6-0.2,17.2,0.7,17.4c0.1,0,0.2-1.5,0.3-2.9c0.4,0.7,1,1.8,1.4,2.2c-0.3,3.4-1.5,4.1-3,3.5c-2.2-0.9-2.2-9-2.2-17.6H89v6.1
		h2.2v2.6H89v9.2h-2.6V141h-2.6v-2.6h2.6v-6.1h-2.3v-2.6H94.6z"/>
</g>
<g>
</g>
<g>
</g>
<g>
</g>
<g>
</g>
<g>
</g>
<g>
</g>
</svg>
