<?xml version="1.0" encoding="utf-8"?>
<!-- Generator: Adobe Illustrator 25.2.3, SVG Export Plug-In . SVG Version: 6.00 Build 0)  -->
<svg version="1.1" id="圖層_1" xmlns="http://www.w3.org/2000/svg" xmlns:xlink="http://www.w3.org/1999/xlink" x="0px" y="0px"
	 viewBox="0 0 100 150" style="enable-background:new 0 0 100 150;" xml:space="preserve">
<style type="text/css">
	.st0{enable-background:new    ;}
	.st1{fill:#DDDDDD;}
</style>
<g class="st0">
	<path class="st1" d="M14.4,96.6h23.8V29.3H18.1V15.6c11.1-2.1,18.7-4.9,25.8-9.3h16.3v90.3h20.8v17.8H14.4V96.6z"/>
</g>
<g class="st0">
	<path class="st1" d="M17.2,146.8c2.2,0.6,4.6,1.4,6,1.9l-2.9,1.5c-1.4-0.6-3.8-1.5-6.2-2.2l1.8-1.2H9.2l2.4,0.9
		c-1.8,1.2-4.7,2.1-7.1,2.6c-0.5-0.6-1.5-1.6-2-2.1c2.3-0.3,4.9-0.8,6.3-1.5H5.4v-8.3h15.2v8.3H17.2z M5.7,135.3H3.1v-4.4h3.2
		c-0.3-0.6-0.7-1.2-1.1-1.6l2.5-0.7c0.6,0.7,1.2,1.6,1.6,2.2l-0.3,0.1h2.5v-2.4h2.7v2.4h2.6c0.5-0.7,1.1-1.7,1.5-2.4l2.8,0.7
		c-0.5,0.7-1,1.2-1.4,1.7h3.2v4.4h-2.7v-2.5H5.7V135.3z M6.8,137.7v-4h12.3v4H6.8z M8.1,140.8h9.8v-0.8H8.1V140.8z M8.1,143h9.8
		v-0.8H8.1V143z M8.1,145.3h9.8v-0.8H8.1V145.3z M9.3,136.1h7v-1h-7V136.1z"/>
	<path class="st1" d="M47.6,147.4v2.2h-17v-2.2h7v-1.6h-5.5v-2.2h5.5v-1.3c-3.6,0.3-4.5,0.4-5,0.6c-0.1-0.5-0.5-1.7-0.8-2.4
		c0.4-0.1,0.8-0.3,1.3-0.7c0.3-0.2,0.8-0.6,1.4-1.2h-3.2c-0.2,3.8-0.8,8.4-2.7,11.5c-0.6-0.4-1.8-1.2-2.5-1.4
		c2.2-3.6,2.4-8.8,2.4-12.5v-6.7h17.8v5.9h-15v0.8v0.2h15.7v2.2h-3.7c1.3,1,2.9,2.3,3.7,3.3l-2.2,1.3c-0.3-0.4-0.7-0.9-1.2-1.3
		l-3.3,0.2v1.5H46v2.2h-5.6v1.6H47.6z M31.5,131.8v1.4h12.2v-1.4H31.5z M38.1,138.6c-0.6,0.5-1.2,1.1-1.8,1.6l5.2-0.3
		c-0.3-0.3-0.6-0.5-0.9-0.7l1-0.6H38.1z"/>
	<path class="st1" d="M65.5,132.6c1.3,1.2,3.7,1.8,6.9,2c-0.6,0.5-1.2,1.5-1.5,2.2c-2.6-0.3-4.6-1.1-6.1-2.3c-0.9,1-2.8,1.9-6.7,2.4
		c-0.2-0.4-0.6-1-0.9-1.5H51v-2.1h7v1.4c4.4-0.5,5-1.5,5-2.4v-0.3h-1.4c-0.5,0.8-1,1.5-1.6,2c-0.4-0.4-1.5-1.1-2-1.4
		c1.2-1,2.2-2.6,2.7-4.1l2.4,0.5c-0.1,0.3-0.3,0.7-0.4,1h6.6l0.4-0.1l1.9,0.6c-0.6,1.3-1.4,2.7-2.1,3.7l-2.1-0.8
		c0.3-0.4,0.6-0.9,0.8-1.3h-2.6v0.5V132.6z M66.2,146.3c2.1,0.8,4.4,1.7,5.8,2.4l-2.5,1.5c-1.3-0.8-3.7-1.9-6-2.7l1.4-1.1h-6.5
		l2,0.9c-1.9,1.2-4.9,2.4-7.2,3c-0.5-0.5-1.4-1.6-2-2c2.2-0.4,4.7-1.1,6.3-1.9H54v-9.4h15.5v9.4H66.2z M57.5,131.6h-5.9v-2h5.9
		V131.6z M56.7,139.5h10.1v-1H56.7V139.5z M56.7,142h10.1v-1H56.7V142z M56.7,144.6h10.1v-1H56.7V144.6z"/>
	<path class="st1" d="M83.8,134.5h-8.5v-2.2H79c-0.3-0.9-0.9-2-1.4-2.9l2-1c0.6,1,1.2,2.2,1.6,3.1l-1.4,0.8h4.1V134.5z M76.3,137.6
		v-2.1H83v2.1H76.3z M76.3,138.6H83v2.1h-6.8V138.6z M83,148.9h-4.6v1h-2.1v-8H83V148.9z M78.4,144v2.6h2.5V144H78.4z M94.6,129.6
		c-0.2,7.6-0.2,17.2,0.7,17.4c0.1,0,0.2-1.5,0.3-2.9c0.4,0.7,1,1.8,1.4,2.2c-0.3,3.4-1.5,4.1-3,3.5c-2.2-0.9-2.2-9-2.2-17.6H89v6.1
		h2.2v2.6H89v9.2h-2.6V141h-2.6v-2.6h2.6v-6.1h-2.3v-2.6H94.6z"/>
</g>
<g>
</g>
<g>
</g>
<g>
</g>
<g>
</g>
<g>
</g>
<g>
</g>
</svg>
